<svg width="666" height="75" viewBox="0 0 666 75" fill="none" xmlns="http://www.w3.org/2000/svg">
<rect width="666" height="75" rx="16" fill="url(#paint0_linear_106_105)"/>
<path d="M142.234 21.1016C141.75 21.5547 141.188 21.7812 140.547 21.7812C139.922 21.7812 139.367 21.5547 138.883 21.1016C138.398 20.6172 138.156 20.0469 138.156 19.3906C138.156 18.7188 138.398 18.1562 138.883 17.7031C139.367 17.2188 139.922 16.9766 140.547 16.9766C141.188 16.9766 141.75 17.2188 142.234 17.7031C142.719 18.1562 142.961 18.7188 142.961 19.3906C142.961 20.0469 142.719 20.6172 142.234 21.1016ZM142.328 50H138.789V25.8125H142.328V50ZM150.672 50H147.133V25.8125H150.672V29.8906C151.328 28.5156 152.336 27.4297 153.695 26.6328C155.07 25.8203 156.656 25.4141 158.453 25.4141C161.203 25.4141 163.383 26.2422 164.992 27.8984C166.617 29.5547 167.43 31.7734 167.43 34.5547V50H163.867V35.3047C163.867 33.2891 163.297 31.6953 162.156 30.5234C161.016 29.3359 159.477 28.7422 157.539 28.7422C155.523 28.7422 153.875 29.375 152.594 30.6406C151.312 31.9062 150.672 33.5469 150.672 35.5625V50ZM183.859 25.0859C185.938 25.0859 187.703 25.4844 189.156 26.2812C190.625 27.0625 191.727 28.1016 192.461 29.3984V16.5547H196V50H192.461V46.3906C191.727 47.6875 190.625 48.7344 189.156 49.5312C187.703 50.3281 185.938 50.7266 183.859 50.7266C180.406 50.7266 177.508 49.5078 175.164 47.0703C172.805 44.6172 171.625 41.5625 171.625 37.9062C171.625 34.2812 172.805 31.2422 175.164 28.7891C177.539 26.3203 180.438 25.0859 183.859 25.0859ZM183.859 47.3984C186.453 47.3984 188.594 46.5078 190.281 44.7266C192.016 42.8984 192.883 40.625 192.883 37.9062C192.883 35.1719 192.016 32.9141 190.281 31.1328C188.594 29.3047 186.453 28.3906 183.859 28.3906C181.391 28.3906 179.312 29.3047 177.625 31.1328C175.984 32.9141 175.164 35.1719 175.164 37.9062C175.164 40.625 175.984 42.8984 177.625 44.7266C179.312 46.5078 181.391 47.3984 183.859 47.3984ZM204.203 21.1016C203.719 21.5547 203.156 21.7812 202.516 21.7812C201.891 21.7812 201.336 21.5547 200.852 21.1016C200.367 20.6172 200.125 20.0469 200.125 19.3906C200.125 18.7188 200.367 18.1562 200.852 17.7031C201.336 17.2188 201.891 16.9766 202.516 16.9766C203.156 16.9766 203.719 17.2188 204.203 17.7031C204.688 18.1562 204.93 18.7188 204.93 19.3906C204.93 20.0469 204.688 20.6172 204.203 21.1016ZM204.297 50H200.758V25.8125H204.297V50ZM229.516 25.8125L217.938 51.6875L206.383 25.8125H210.062L217.938 43.5781L225.859 25.8125H229.516ZM236.453 21.1016C235.969 21.5547 235.406 21.7812 234.766 21.7812C234.141 21.7812 233.586 21.5547 233.102 21.1016C232.617 20.6172 232.375 20.0469 232.375 19.3906C232.375 18.7188 232.617 18.1562 233.102 17.7031C233.586 17.2188 234.141 16.9766 234.766 16.9766C235.406 16.9766 235.969 17.2188 236.453 17.7031C236.938 18.1562 237.18 18.7188 237.18 19.3906C237.18 20.0469 236.938 20.6172 236.453 21.1016ZM236.547 50H233.008V25.8125H236.547V50ZM255.25 50H243.766V16.5547H254.008C256.539 16.5547 258.664 17.3672 260.383 18.9922C262.117 20.5859 262.984 22.6172 262.984 25.0859C262.984 26.6797 262.609 28.0625 261.859 29.2344C261.109 30.4062 260.055 31.2656 258.695 31.8125C260.852 32.2656 262.508 33.2266 263.664 34.6953C264.836 36.1484 265.422 37.9531 265.422 40.1094C265.422 42.9844 264.445 45.3516 262.492 47.2109C260.586 49.0703 258.172 50 255.25 50ZM247.516 20V30.5234H253.75C255.312 30.5234 256.617 30.0234 257.664 29.0234C258.711 28.0078 259.234 26.7422 259.234 25.2266C259.234 23.7109 258.719 22.4609 257.688 21.4766C256.656 20.4922 255.359 20 253.797 20H247.516ZM247.516 33.875V46.5547H255.016C256.938 46.5547 258.523 45.9453 259.773 44.7266C261.039 43.5078 261.672 41.9688 261.672 40.1094C261.672 38.3281 261.031 36.8438 259.75 35.6562C258.516 34.4688 256.922 33.875 254.969 33.875H247.516ZM282.32 50.7266C278.711 50.7266 275.664 49.5078 273.18 47.0703C270.695 44.6328 269.453 41.5781 269.453 37.9062C269.453 34.2656 270.695 31.2266 273.18 28.7891C275.695 26.3203 278.742 25.0859 282.32 25.0859C285.883 25.0859 288.922 26.3203 291.438 28.7891C293.922 31.2266 295.164 34.2656 295.164 37.9062C295.164 41.5781 293.922 44.6328 291.438 47.0703C288.953 49.5078 285.914 50.7266 282.32 50.7266ZM275.641 31.1328C273.875 32.8984 272.992 35.1562 272.992 37.9062C272.992 40.6406 273.875 42.9141 275.641 44.7266C277.422 46.5078 279.648 47.3984 282.32 47.3984C284.977 47.3984 287.195 46.5078 288.977 44.7266C290.742 42.9141 291.625 40.6406 291.625 37.9062C291.625 35.1562 290.742 32.8984 288.977 31.1328C287.195 29.3047 284.977 28.3906 282.32 28.3906C279.648 28.3906 277.422 29.3047 275.641 31.1328ZM311.43 50.7266C307.82 50.7266 304.773 49.5078 302.289 47.0703C299.805 44.6328 298.562 41.5781 298.562 37.9062C298.562 34.2656 299.805 31.2266 302.289 28.7891C304.805 26.3203 307.852 25.0859 311.43 25.0859C314.992 25.0859 318.031 26.3203 320.547 28.7891C323.031 31.2266 324.273 34.2656 324.273 37.9062C324.273 41.5781 323.031 44.6328 320.547 47.0703C318.062 49.5078 315.023 50.7266 311.43 50.7266ZM304.75 31.1328C302.984 32.8984 302.102 35.1562 302.102 37.9062C302.102 40.6406 302.984 42.9141 304.75 44.7266C306.531 46.5078 308.758 47.3984 311.43 47.3984C314.086 47.3984 316.305 46.5078 318.086 44.7266C319.852 42.9141 320.734 40.6406 320.734 37.9062C320.734 35.1562 319.852 32.8984 318.086 31.1328C316.305 29.3047 314.086 28.3906 311.43 28.3906C308.758 28.3906 306.531 29.3047 304.75 31.1328ZM332.266 50H328.727V16.5547H332.266V37.7656L342.648 25.8125H346.727L337.562 36.4062L348.016 50H343.797L335.289 38.9609L332.266 42.4531V50Z" fill="white"/>
<path d="M375.098 50H366.484V24.916H374.166C376.064 24.916 377.658 25.5254 378.947 26.7441C380.248 27.9395 380.898 29.4629 380.898 31.3145C380.898 32.5098 380.617 33.5469 380.055 34.4258C379.492 35.3047 378.701 35.9492 377.682 36.3594C379.299 36.6992 380.541 37.4199 381.408 38.5215C382.287 39.6113 382.727 40.9648 382.727 42.582C382.727 44.7383 381.994 46.5137 380.529 47.9082C379.1 49.3027 377.289 50 375.098 50ZM369.297 27.5V35.3926H373.973C375.145 35.3926 376.123 35.0176 376.908 34.2676C377.693 33.5059 378.086 32.5566 378.086 31.4199C378.086 30.2832 377.699 29.3457 376.926 28.6074C376.152 27.8691 375.18 27.5 374.008 27.5H369.297ZM369.297 37.9062V47.416H374.922C376.363 47.416 377.553 46.959 378.49 46.0449C379.439 45.1309 379.914 43.9766 379.914 42.582C379.914 41.2461 379.434 40.1328 378.473 39.2422C377.547 38.3516 376.352 37.9062 374.887 37.9062H369.297ZM402.238 50H387.789V24.916H401.975V27.5H390.602V35.4629H401.289V38.0469H390.602V47.416H402.238V50ZM414.965 50H412.17V27.5H405.314V24.916H421.803V27.5H414.965V50ZM433.246 50H430.451V27.5H423.596V24.916H440.084V27.5H433.246V50ZM469.562 50H452.512L464.307 35.5684C465.537 34.0918 466.152 32.7207 466.152 31.4551C466.152 30.2246 465.707 29.1816 464.816 28.3262C463.949 27.459 462.906 27.0254 461.688 27.0254C460.457 27.0254 459.414 27.4707 458.559 28.3613C457.691 29.2285 457.258 30.2715 457.258 31.4902H454.48C454.48 29.5566 455.189 27.8809 456.607 26.4629C458.002 25.0684 459.707 24.3711 461.723 24.3711C463.738 24.3711 465.443 25.0684 466.838 26.4629C468.256 27.8809 468.965 29.5566 468.965 31.4902C468.965 32.0059 468.924 32.5215 468.842 33.0371C468.76 33.541 468.531 34.168 468.156 34.918C467.793 35.668 467.307 36.4121 466.697 37.1504L458.26 47.416H469.562V50ZM472.375 42.8281C472.305 42.043 472.27 40.2441 472.27 37.4316C472.27 34.6543 472.305 32.8672 472.375 32.0703C472.586 29.9023 473.5 28.0801 475.117 26.6035C476.746 25.1152 478.639 24.3711 480.795 24.3711C482.963 24.3711 484.861 25.1152 486.49 26.6035C488.107 28.0801 489.021 29.9023 489.232 32.0703C489.303 32.8555 489.338 34.6426 489.338 37.4316C489.338 40.2441 489.303 42.043 489.232 42.8281C489.021 45.0312 488.107 46.8711 486.49 48.3477C484.885 49.8125 482.986 50.5449 480.795 50.5449C478.615 50.5449 476.723 49.8125 475.117 48.3477C473.5 46.8711 472.586 45.0312 472.375 42.8281ZM475.047 42.6523C475.188 44.1758 475.797 45.4238 476.875 46.3965C478 47.3809 479.307 47.873 480.795 47.873C482.295 47.873 483.59 47.3809 484.68 46.3965C485.793 45.4238 486.42 44.1758 486.561 42.6523C486.631 41.9609 486.666 40.2207 486.666 37.4316C486.666 34.6543 486.631 32.9258 486.561 32.2461C486.42 30.7227 485.793 29.4746 484.68 28.502C483.59 27.5176 482.295 27.0254 480.795 27.0254C479.307 27.0254 478 27.5176 476.875 28.502C475.797 29.4746 475.188 30.7227 475.047 32.2461C474.965 33.043 474.924 34.7715 474.924 37.4316C474.924 40.1152 474.965 41.8555 475.047 42.6523ZM507.566 50H490.516L502.311 35.5684C503.541 34.0918 504.156 32.7207 504.156 31.4551C504.156 30.2246 503.711 29.1816 502.82 28.3262C501.953 27.459 500.91 27.0254 499.691 27.0254C498.461 27.0254 497.418 27.4707 496.562 28.3613C495.695 29.2285 495.262 30.2715 495.262 31.4902H492.484C492.484 29.5566 493.193 27.8809 494.611 26.4629C496.006 25.0684 497.711 24.3711 499.727 24.3711C501.742 24.3711 503.447 25.0684 504.842 26.4629C506.26 27.8809 506.969 29.5566 506.969 31.4902C506.969 32.0059 506.928 32.5215 506.846 33.0371C506.764 33.541 506.535 34.168 506.16 34.918C505.797 35.668 505.311 36.4121 504.701 37.1504L496.264 47.416H507.566V50ZM523.844 44.4277H510.098L519.449 24.916H522.473L514.492 41.8262H523.844V36.3594H526.656V50H523.844V44.4277Z" fill="#F4D131"/>
<defs>
<linearGradient id="paint0_linear_106_105" x1="-103" y1="38.0001" x2="768.5" y2="38.0001" gradientUnits="userSpaceOnUse">
<stop stop-color="#1C496B"/>
<stop offset="0.524" stop-color="#0080AD"/>
<stop offset="1" stop-color="#1C496B"/>
</linearGradient>
</defs>
</svg>
