<svg width="36" height="36" viewBox="0 0 36 36" fill="none" xmlns="http://www.w3.org/2000/svg">
<path d="M4.5 33.75H3.375C2.77826 33.75 2.20597 33.5129 1.78401 33.091C1.36205 32.669 1.125 32.0967 1.125 31.5V7.875C1.125 7.27826 1.36205 6.70597 1.78401 6.28401C2.20597 5.86205 2.77826 5.625 3.375 5.625H4.5C5.09674 5.625 5.66903 5.86205 6.09099 6.28401C6.51295 6.70597 6.75 7.27826 6.75 7.875V31.5C6.75 32.0967 6.51295 32.669 6.09099 33.091C5.66903 33.5129 5.09674 33.75 4.5 33.75Z" fill="#8A8E95"/>
<path d="M16.875 12.375C16.875 11.7783 16.6379 11.206 16.216 10.784C15.794 10.3621 15.2217 10.125 14.625 10.125H10.125C9.52826 10.125 8.95597 10.3621 8.53401 10.784C8.11205 11.206 7.875 11.7783 7.875 12.375V14.3438C7.875 14.4183 7.90463 14.4899 7.95738 14.5426C8.01012 14.5954 8.08166 14.625 8.15625 14.625H16.5938C16.6683 14.625 16.7399 14.5954 16.7926 14.5426C16.8454 14.4899 16.875 14.4183 16.875 14.3438V12.375Z" fill="#8A8E95"/>
<path d="M7.875 31.5C7.875 32.0967 8.11205 32.669 8.53401 33.091C8.95597 33.5129 9.52826 33.75 10.125 33.75H14.625C15.2217 33.75 15.794 33.5129 16.216 33.091C16.6379 32.669 16.875 32.0967 16.875 31.5V29.3906C16.875 29.3533 16.8602 29.3176 16.8338 29.2912C16.8074 29.2648 16.7717 29.25 16.7344 29.25H8.01562C7.97833 29.25 7.94256 29.2648 7.91619 29.2912C7.88982 29.3176 7.875 29.3533 7.875 29.3906V31.5Z" fill="#8A8E95"/>
<path d="M16.7344 16.875H8.01562C7.93796 16.875 7.875 16.938 7.875 17.0156V26.8594C7.875 26.937 7.93796 27 8.01562 27H16.7344C16.812 27 16.875 26.937 16.875 26.8594V17.0156C16.875 16.938 16.812 16.875 16.7344 16.875Z" fill="#8A8E95"/>
<path d="M22.5 33.75H20.25C19.6533 33.75 19.081 33.5129 18.659 33.091C18.2371 32.669 18 32.0967 18 31.5V4.5C18 3.90326 18.2371 3.33097 18.659 2.90901C19.081 2.48705 19.6533 2.25 20.25 2.25H22.5C23.0967 2.25 23.669 2.48705 24.091 2.90901C24.5129 3.33097 24.75 3.90326 24.75 4.5V31.5C24.75 32.0967 24.5129 32.669 24.091 33.091C23.669 33.5129 23.0967 33.75 22.5 33.75Z" fill="#8A8E95"/>
<path d="M34.8671 31.3206L32.6009 7.41438C32.4968 6.31399 31.4098 5.51594 30.173 5.63477L27.9336 5.84571C26.6968 5.96313 25.7785 6.95032 25.8826 8.05071L28.1487 31.957C28.2528 33.0573 29.3398 33.8554 30.5766 33.7366L32.8161 33.5256C34.0529 33.4082 34.9711 32.421 34.8671 31.3206V31.3206Z" fill="#8A8E95"/>
</svg>
