<svg width="18" height="20" viewBox="0 0 18 20" fill="none" xmlns="http://www.w3.org/2000/svg">
<path d="M3.24151 0H1.25849C0.562388 0 0 0.638397 0 1.42858V2.85715H4.5V1.42858C4.5 0.638397 3.93761 0 3.24151 0Z" fill="#ECEDF7"/>
<path d="M0 18.5714C0 19.3616 0.562388 20 1.25849 20H3.24151C3.93761 20 4.5 19.3616 4.5 18.5714V17.1429H0V18.5714Z" fill="#ECEDF7"/>
<path d="M4.5 4.28573H0V15.7143H4.5V4.28573Z" fill="#ECEDF7"/>
<path d="M9.99151 0H8.00849C7.31239 0 6.75 0.638397 6.75 1.42858V2.85715H11.25V1.42858C11.25 0.638397 10.6876 0 9.99151 0Z" fill="#ECEDF7"/>
<path d="M6.75 18.5714C6.75 19.3616 7.31239 20 8.00849 20H9.99151C10.6876 20 11.25 19.3616 11.25 18.5714V17.1429H6.75V18.5714Z" fill="#ECEDF7"/>
<path d="M11.25 4.28573H6.75V15.7143H11.25V4.28573Z" fill="#ECEDF7"/>
<path d="M16.7415 0H14.7585C14.0624 0 13.5 0.638397 13.5 1.42858V2.85715H18V1.42858C18 0.638397 17.4376 0 16.7415 0Z" fill="#ECEDF7"/>
<path d="M13.5 18.5714C13.5 19.3616 14.0624 20 14.7585 20H16.7415C17.4376 20 18 19.3616 18 18.5714V17.1429H13.5V18.5714Z" fill="#ECEDF7"/>
<path d="M18 4.28573H13.5V15.7143H18V4.28573Z" fill="#ECEDF7"/>
</svg>
