<svg width="12" height="36" viewBox="0 0 12 36" fill="none" xmlns="http://www.w3.org/2000/svg">
<g clip-path="url(#clip0_115_24)">
<path d="M11.25 30.375C11.25 31.4875 10.9201 32.5751 10.302 33.5001C9.68394 34.4251 8.80543 35.1461 7.7776 35.5718C6.74976 35.9976 5.61876 36.109 4.52762 35.8919C3.43648 35.6749 2.4342 35.1391 1.64753 34.3525C0.860856 33.5658 0.325127 32.5635 0.108085 31.4724C-0.108957 30.3812 0.00243723 29.2502 0.42818 28.2224C0.853923 27.1946 1.57489 26.3161 2.49992 25.698C3.42495 25.0799 4.51248 24.75 5.625 24.75C7.11636 24.7516 8.54618 25.3447 9.60072 26.3993C10.6553 27.4538 11.2484 28.8836 11.25 30.375V30.375ZM0.650003 1.775L1.607 20.9C1.6293 21.3318 1.81656 21.7386 2.13012 22.0363C2.44368 22.3341 2.8596 22.5001 3.292 22.5H7.957C8.3894 22.5001 8.80532 22.3341 9.11888 22.0363C9.43244 21.7386 9.6197 21.3318 9.642 20.9L10.598 1.775C10.6098 1.54645 10.575 1.3179 10.4957 1.10322C10.4164 0.888542 10.2943 0.692227 10.1368 0.526206C9.97931 0.360185 9.78969 0.227926 9.57948 0.137467C9.36926 0.047008 9.14285 0.000238131 8.914 0L2.336 0C2.10733 0.000123091 1.88108 0.0467054 1.67096 0.13692C1.46084 0.227135 1.27124 0.359101 1.11366 0.52481C0.95609 0.69052 0.833828 0.886517 0.754297 1.10091C0.674766 1.3153 0.639623 1.54362 0.651003 1.772L0.650003 1.775Z" fill="#FF0000"/>
</g>
<defs>
<clipPath id="clip0_115_24">
<rect width="11.25" height="36" fill="white"/>
</clipPath>
</defs>
</svg>
